Coordinates
version=1
nRows=13
nColumns=40
inDegrees=yes

Units are S.I. units (second, meters, Newtons, ...)
Angles are in degrees.

endheader
time	pelvis_tilt	pelvis_list	pelvis_rotation	pelvis_tx	pelvis_ty	pelvis_tz	hip_flexion_r	hip_adduction_r	hip_rotation_r	knee_angle_r	knee_angle_r_beta	ankle_angle_r	subtalar_angle_r	mtp_angle_r	hip_flexion_l	hip_adduction_l	hip_rotation_l	knee_angle_l	knee_angle_l_beta	ankle_angle_l	subtalar_angle_l	mtp_angle_l	lumbar_extension	lumbar_bending	lumbar_rotation	arm_flex_r	arm_add_r	arm_rot_r	elbow_flex_r	pro_sup_r	wrist_flex_r	wrist_dev_r	arm_flex_l	arm_add_l	arm_rot_l	elbow_flex_l	pro_sup_l	wrist_flex_l	wrist_dev_l
      0.00000000	     -2.65766162	     -3.81074884	      5.34323411	     -1.49761222	      0.90586708	      1.39462073	     26.15726586	     -1.01581969	    -14.66289249	    -45.36196852	     -0.79171571	     -0.71258498	    -13.89561893	     13.09673348	      2.05710702	      1.27536501	     16.54384348	     -9.76024430	     -0.17034840	      6.40411051	     -5.62621037	    -10.22771244	     -8.63752371	      4.46017270	     -3.44700948	      8.68225447	     -9.77109194	     13.72961481	     15.05873610	     89.95437384	      0.00000000	      0.00000000	     12.74422124	     13.17877870	    -15.51500001	     19.36292686	     89.95437384	      0.00000000	      0.00000000
      0.01000000	     -2.69765079	     -3.77204731	      5.32265967	     -1.49479230	      0.90537528	      1.39405688	     26.48426077	     -0.95641998	    -14.37020953	    -44.26529619	     -0.77257516	     -0.66984690	    -13.64717937	     13.04513648	      1.83940762	      1.14654630	     16.52165509	     -9.83889130	     -0.17172105	      6.84299707	     -5.49147291	    -10.08855359	     -8.48135949	      4.43112084	     -3.55367736	      8.37883490	     -9.78266654	     13.79616296	     15.08466658	     89.95437384	      0.00000000	      0.00000000	     13.07475789	     13.22875977	    -15.50949367	     19.64421646	     89.95437384	      0.00000000	      0.00000000
      0.02000000	     -2.37134178	     -3.85482013	      5.27522198	     -1.49159581	      0.90566059	      1.39380636	     26.24114916	     -0.64734255	    -14.12929467	    -42.78621287	     -0.74676029	     -0.83413899	    -13.75248222	     13.27188803	      1.17922062	      1.28168454	     16.37016006	     -9.62389058	     -0.16796858	      6.85676396	     -5.10216130	    -10.16086830	     -8.74520255	      4.55201357	     -3.59193455	      8.11640615	     -9.82901212	     14.14584921	     15.15815932	     89.95437384	      0.00000000	      0.00000000	     13.44196705	     13.32531640	    -15.82176191	     19.90005624	     89.95437384	      0.00000000	      0.00000000
      0.03000000	     -2.23050008	     -3.80868934	      5.25560353	     -1.48839114	      0.90557310	      1.39333208	     26.24472904	     -0.62593036	    -14.03185963	    -41.46298036	     -0.72366552	     -0.82946427	    -13.29359411	     13.42090586	      0.71422341	      1.19519363	     16.24101238	     -9.39137793	     -0.16391047	      7.06822713	     -5.24049374	    -10.10437852	     -8.82337563	      4.55462807	     -3.78134121	      7.89141616	     -9.86191969	     14.67095107	     15.20179536	     89.95437384	      0.00000000	      0.00000000	     13.66546971	     13.35387657	    -15.39152035	     20.42847228	     89.95437384	      0.00000000	      0.00000000
      0.04000000	     -2.34205964	     -3.85554155	      5.21118595	     -1.48540219	      0.90484161	      1.39299105	     26.57974336	     -0.52491313	    -13.97006883	    -40.16468259	     -0.70100595	     -0.86113032	    -12.76991778	     13.36077488	      0.59703294	      1.19945076	     16.22008198	     -9.50510536	     -0.16589538	      7.71100322	     -5.16544317	     -9.88474138	     -8.59679484	      4.61978888	     -3.84576652	      7.61190381	     -9.88991405	     14.86766527	     15.18878297	     89.95437384	      0.00000000	      0.00000000	     13.97084872	     13.34896254	    -15.41508684	     20.75400732	     89.95437384	      0.00000000	      0.00000000
      0.05000000	     -2.50186043	     -3.68287031	      5.16189476	     -1.48217530	      0.90400014	      1.39247781	     27.01903721	     -0.78064135	    -14.09189166	    -39.06822024	     -0.68186908	     -0.80695310	    -12.42262992	     13.23755018	      0.56745687	      0.98051621	     16.30246842	     -9.63397559	     -0.16814459	      7.88842171	     -5.08470688	     -9.76173432	     -8.32240819	      4.45436133	     -3.99375149	      7.33342875	     -9.86433614	     14.93226502	     15.19214448	     89.95437384	      0.00000000	      0.00000000	     14.20922513	     13.37064306	    -15.43729875	     21.04274041	     89.95437384	      0.00000000	      0.00000000
      0.06000000	     -2.62790108	     -3.56339540	      5.12647889	     -1.47893064	      0.90330442	      1.39215115	     27.32245552	     -0.88212162	    -14.09846613	    -37.74030644	     -0.65869261	     -0.85259294	    -11.90262332	     13.13923662	      0.46389550	      0.82810610	     16.34648255	     -9.67300590	     -0.16882580	      8.19067673	     -5.06393126	     -9.66437232	     -8.10902837	      4.34761987	     -4.16670625	      7.10213487	     -9.78790595	     15.05570072	     15.10582282	     89.95437384	      0.00000000	      0.00000000	     14.49890860	     13.39447096	    -15.55446422	     21.27786915	     89.95437384	      0.00000000	      0.00000000
      0.07000000	     -1.87572450	     -3.75958809	      5.20904361	     -1.47496686	      0.90413244	      1.39187172	     26.35518489	     -0.59201985	    -14.45067559	    -35.91150046	     -0.62677392	     -1.01872313	    -10.52784376	     12.95292837	     -0.71240325	      1.15767026	     16.30373366	     -9.36974925	     -0.16353297	      8.03610831	     -5.35475397	     -9.64993162	     -8.84850673	      4.67241086	     -4.30151386	      6.94030557	     -9.86957369	     15.70544136	     15.16683276	     89.95437384	      0.00000000	      0.00000000	     14.83355095	     13.52954294	    -16.25177927	     21.76384460	     89.95437384	      0.00000000	      0.00000000
      0.08000000	     -2.01966337	     -3.79853381	      5.09297427	     -1.47153856	      0.90318753	      1.39179569	     26.68441298	     -0.51705131	    -14.51300008	    -34.58863153	     -0.60368550	     -1.15565612	     -9.55582755	     12.73200891	     -0.75280432	      1.17691830	     16.57410761	     -9.68617082	     -0.16905557	      8.68984044	     -5.33242577	     -9.46558340	     -8.60506390	      4.73229931	     -4.38046049	      6.72978250	     -9.84102457	     15.89743546	     15.08932913	     89.95437384	      0.00000000	      0.00000000	     15.10800270	     13.54433019	    -16.48405683	     22.00184987	     89.95437384	      0.00000000	      0.00000000
      0.09000000	     -2.18427284	     -3.60670194	      4.99478707	     -1.46805622	      0.90228751	      1.39149927	     27.07872352	     -0.78123374	    -14.75942242	    -33.47679731	     -0.58428034	     -1.13766712	     -9.15770949	     12.60272009	     -0.80994713	      0.94055350	     16.65257075	     -9.76859826	     -0.17049420	      8.92124481	     -5.34643229	     -9.37802739	     -8.35758090	      4.56075965	     -4.46648182	      6.48845274	     -9.80091923	     15.95274506	     15.05452964	     89.95437384	      0.00000000	      0.00000000	     15.38382709	     13.51002544	    -16.53197143	     22.26567887	     89.95437384	      0.00000000	      0.00000000
      0.10000000	     -1.77072485	     -3.71575212	      5.01325850	     -1.46412666	      0.90246349	      1.39131790	     26.51418289	     -0.67498182	    -15.22840407	    -31.78858507	     -0.55481547	     -1.44821801	     -7.56339035	     12.14181567	     -1.53165799	      1.16584671	     16.48858724	     -9.61771538	     -0.16786080	      8.89147065	     -5.60660152	     -9.38737916	     -8.78498177	      4.78720956	     -4.68984526	      6.38143998	     -9.79836287	     16.22016421	     15.06847374	     89.95437384	      0.00000000	      0.00000000	     15.59590818	     13.62829855	    -16.85795682	     22.77695659	     89.95437384	      0.00000000	      0.00000000
      0.11000000	     -1.85244215	     -3.62813122	      4.83889430	     -1.46059709	      0.90164779	      1.39129358	     26.72646155	     -0.76759744	    -15.42413310	    -30.51536591	     -0.53259361	     -1.83377158	     -6.69622633	     11.84839647	     -1.58755552	      1.07611152	     16.61389539	     -9.91569744	     -0.17306157	      9.15334450	     -5.50515616	     -9.33497446	     -8.65062373	      4.73577785	     -4.67138744	      6.20146191	     -9.75799083	     16.24964315	     15.00687278	     89.95437384	      0.00000000	      0.00000000	     15.90507045	     13.59986108	    -17.01513427	     23.02702089	     89.95437384	      0.00000000	      0.00000000
      0.12000000	     -2.00943929	     -3.50577068	      4.70377786	     -1.45694421	      0.90072576	      1.39119984	     26.96847294	     -0.90139470	    -15.60606701	    -29.21587353	     -0.50991319	     -2.16665753	     -6.06675265	     11.66414642	     -1.60687510	      0.93881087	     16.56388522	    -10.10183548	     -0.17631029	      9.49455445	     -5.45941407	     -9.30601634	     -8.47839988	      4.66627100	     -4.81082730	      6.01604210	     -9.72160734	     16.20753385	     15.06836088	     89.95437384	      0.00000000	      0.00000000	     16.09511821	     13.62978561	    -17.05833336	     23.40102746	     89.95437384	      0.00000000	      0.00000000
